P2
91 149
255
0  0  0  0  0  0  0  0  0  0  0  0  0  0  0  0  0  0  0  0  0  0  0  0  0  0  0  0  0  0  0  0  0  0  0  0  0  0  0  0  0  0  0  0  0  0  0  0  0  102  68  94  205  127  205  153  0  0  0  0  0  0  0  0  0  0  0  0  0  0  0  0  0  0  0  0  0  0  0  0  0  0  0  0  0  0  0  0  0  0  0  
0  0  0  0  0  0  0  0  0  0  0  0  0  0  0  0  0  0  0  0  0  0  0  0  0  0  0  0  0  0  0  0  0  0  0  0  0  0  0  0  0  0  0  0  0  0  0  0  145  93  17  179  43  51  162  188  68  0  0  0  0  0  0  0  0  0  0  0  0  0  0  0  0  0  0  0  0  0  0  0  0  0  0  0  0  0  0  0  0  0  0  
0  0  0  0  0  0  0  0  0  0  0  0  0  0  0  0  0  0  0  0  0  0  0  0  0  0  0  0  0  0  0  0  0  0  0  0  0  0  0  0  0  0  0  0  0  0  255  86  153  222  0  0  0  0  17  137  94  0  0  0  0  0  0  0  0  0  0  0  0  0  0  0  0  0  0  0  0  0  0  0  0  0  0  0  0  0  0  0  0  0  0  
0  0  0  0  0  0  0  0  0  0  0  0  0  0  0  0  0  0  0  0  0  0  0  0  0  0  0  0  0  0  0  0  0  0  0  0  0  0  0  0  0  0  0  0  0  255  255  170  120  0  0  0  0  0  0  111  120  153  0  0  0  0  0  0  0  102  51  17  43  51  94  0  0  0  0  0  0  0  0  0  0  0  0  0  0  0  0  0  0  0  0  
0  0  0  0  0  0  0  0  0  0  0  0  0  0  0  0  0  0  0  0  0  0  0  0  0  0  0  0  0  0  0  0  0  0  0  0  0  0  0  0  0  0  0  0  0  145  136  188  0  0  0  0  0  0  0  137  110  153  0  0  0  0  0  0  145  85  120  214  170  197  205  205  68  0  0  0  0  0  0  0  0  0  0  0  0  0  0  0  0  0  0  
0  0  0  0  0  0  0  0  0  0  0  0  0  0  0  0  0  0  0  0  0  0  0  0  0  0  0  0  0  0  0  0  0  0  0  0  0  0  0  0  0  0  0  0  102  43  188  0  0  0  0  0  0  0  0  230  86  94  94  51  94  153  0  111  119  206  136  0  0  0  0  137  154  51  0  0  0  0  0  0  0  0  0  0  0  0  0  0  0  0  0  
0  0  0  0  0  0  0  0  0  0  0  0  0  0  0  0  0  0  0  0  0  0  0  0  0  0  0  0  0  0  0  0  0  0  0  0  0  0  0  0  0  0  0  0  162  231  0  0  0  0  0  0  0  0  68  180  162  111  111  129  59  153  68  69  136  0  0  0  0  0  0  51  154  94  0  0  0  0  0  0  0  0  0  0  0  0  0  0  0  0  0  
0  0  0  0  0  0  0  0  0  0  0  0  0  0  0  0  0  0  0  0  0  0  0  0  0  0  0  0  0  0  0  0  0  0  0  0  0  0  0  0  0  0  0  94  94  86  0  0  0  0  0  0  0  0  111  120  206  43  68  111  162  205  205  137  205  94  0  0  0  0  0  0  111  137  0  0  0  0  0  0  0  0  0  0  0  0  0  0  0  0  0  
0  0  0  0  0  0  0  0  0  0  0  0  0  0  0  0  0  0  0  0  0  0  0  0  0  0  0  0  0  0  0  0  0  0  0  0  0  0  0  0  0  0  0  68  180  0  0  0  0  0  0  0  0  0  205  205  136  0  0  0  0  68  137  205  248  162  154  0  0  0  0  0  68  180  0  0  0  0  0  0  0  0  0  0  0  0  0  0  0  0  0  
0  0  0  0  0  0  0  0  0  0  0  0  0  0  0  0  0  0  0  0  0  0  0  0  0  0  0  0  0  0  0  0  0  0  0  0  0  0  0  0  0  0  0  205  120  0  0  0  0  0  0  0  0  179  120  231  0  0  0  0  0  0  0  68  162  170  171  205  43  0  0  0  111  137  0  0  0  0  0  0  0  0  0  0  0  0  0  0  0  0  0  
0  0  0  0  0  0  0  0  0  0  0  0  0  0  0  0  0  0  0  0  0  0  0  0  0  0  0  0  0  0  0  0  0  0  0  0  0  0  0  0  0  0  145  120  76  0  0  0  0  0  0  0  111  137  0  86  0  0  0  0  0  0  0  0  0  137  205  0  205  43  0  0  248  127  0  0  0  0  0  0  0  0  0  0  0  0  0  0  0  0  0  
0  0  0  0  0  0  0  0  0  0  0  0  0  0  0  0  0  0  0  0  0  0  0  0  0  0  0  0  0  0  0  0  0  0  0  0  0  0  0  0  0  94  120  17  68  0  0  0  0  0  0  43  162  17  136  0  0  0  0  0  0  0  0  0  0  0  111  205  0  162  0  111  84  254  0  0  0  0  0  0  0  0  0  0  0  0  0  0  0  0  0  
0  0  0  0  0  0  0  0  0  0  0  0  0  0  0  0  0  0  0  0  0  0  0  0  0  0  0  0  0  0  0  0  0  0  0  0  0  0  0  0  94  188  93  34  111  0  0  0  0  0  0  248  189  102  0  0  0  0  0  0  0  0  0  0  0  0  0  111  162  188  154  222  153  0  0  0  0  0  0  0  0  0  0  0  0  0  0  0  0  0  0  
0  0  0  0  0  0  0  0  0  0  0  0  0  0  0  0  0  0  0  0  0  0  0  0  0  0  0  0  0  0  0  0  0  0  0  0  0  0  0  145  146  144  84  111  137  94  0  0  0  0  94  103  136  0  0  0  0  0  0  0  0  0  0  0  0  0  0  0  188  171  111  84  153  0  0  0  0  0  0  0  0  0  0  0  0  0  0  0  0  0  0  
0  0  0  0  0  0  0  0  0  0  0  0  0  0  0  0  0  0  0  0  0  0  0  0  0  0  0  0  0  0  0  0  0  0  0  0  0  0  94  43  188  0  0  137  129  111  0  0  0  0  17  34  0  0  0  0  0  0  0  0  0  0  0  0  0  0  0  0  68  205  247  238  0  0  0  0  0  0  0  0  0  0  0  0  0  0  0  0  0  0  0  
0  0  0  0  0  0  0  0  0  0  0  0  0  0  0  0  0  0  0  0  0  0  0  0  0  0  0  0  0  0  0  0  0  0  0  0  0  0  111  231  0  0  0  51  111  222  0  0  0  0  0  0  0  0  0  0  0  0  0  0  0  0  0  0  0  0  0  0  0  111  137  85  153  0  0  0  0  0  0  0  0  0  0  0  0  0  0  0  0  0  0  
0  0  0  0  0  0  0  0  0  0  0  0  0  0  0  0  0  0  0  0  0  0  0  0  0  0  0  0  0  0  0  0  0  0  0  0  0  196  144  86  0  0  0  0  0  0  0  0  0  0  0  0  0  0  0  0  0  0  0  0  0  0  0  0  0  0  0  0  0  0  154  213  153  0  0  0  0  0  0  0  0  0  0  0  0  0  0  0  0  0  0  
0  0  0  0  0  0  0  0  0  0  0  0  0  0  0  0  0  0  0  0  0  0  0  0  0  0  0  0  0  0  0  0  0  0  0  0  153  187  223  0  0  0  0  0  0  0  0  0  0  0  0  0  0  0  0  0  0  0  0  0  0  0  0  0  0  0  0  0  0  0  43  162  137  119  0  0  0  0  0  0  0  0  0  0  0  0  0  0  0  0  0  
0  0  0  0  0  0  0  0  0  0  0  0  0  0  0  0  0  0  0  0  0  0  0  0  0  0  0  0  0  0  0  0  0  0  0  0  51  120  102  0  0  0  0  0  0  0  0  0  0  0  0  0  0  0  0  0  0  0  0  0  0  0  0  0  0  0  0  0  0  0  0  68  86  170  0  0  0  0  0  0  0  0  0  0  0  0  0  0  0  0  0  
0  0  0  0  0  0  0  0  0  0  0  0  0  0  0  0  0  0  0  0  0  0  0  0  0  0  0  0  0  0  0  0  0  0  0  0  170  206  0  0  0  0  0  0  0  0  0  0  0  0  0  0  0  0  0  0  0  0  0  0  0  0  0  0  0  0  0  0  0  0  0  0  137  162  94  0  0  0  0  0  0  0  0  0  0  0  0  0  0  0  0  
0  0  0  0  0  0  0  0  0  0  0  0  0  0  0  0  0  0  0  0  0  0  0  0  0  0  0  0  0  0  0  0  0  0  0  102  43  136  0  0  0  0  0  0  0  0  0  0  0  0  0  0  0  0  0  0  0  0  0  0  0  0  0  0  0  0  0  0  0  0  0  0  43  111  162  127  0  0  0  0  0  0  0  0  0  0  0  0  0  0  0  
0  0  0  0  0  0  0  0  0  0  0  0  0  0  0  0  0  0  0  0  0  0  0  0  0  0  0  0  0  0  0  0  0  0  0  94  111  0  0  0  0  0  0  0  0  0  0  0  0  0  0  0  0  0  0  0  0  0  0  0  0  0  0  0  0  0  0  0  0  0  0  0  0  43  78  137  119  0  0  0  0  0  0  0  0  0  0  0  0  0  0  
0  0  0  0  0  0  0  0  0  0  0  0  0  0  0  0  0  0  0  0  0  0  0  0  0  0  0  0  0  0  0  0  0  0  0  94  154  0  0  0  0  0  0  0  0  0  0  0  0  0  0  0  0  0  0  0  0  0  0  0  0  0  0  0  0  0  0  0  0  0  0  0  0  0  68  86  127  127  0  0  0  0  0  0  0  0  0  0  0  0  0  
0  0  0  0  0  0  0  0  0  0  0  0  0  0  0  0  0  0  0  0  0  0  0  0  0  0  0  0  0  0  0  0  0  0  0  0  93  0  0  0  0  0  0  0  0  0  0  0  0  0  0  0  0  0  0  0  0  0  0  0  0  0  0  0  0  0  0  0  0  0  0  0  0  0  0  94  110  143  102  0  0  0  0  0  0  0  0  0  0  0  0  
0  0  0  0  0  0  0  0  0  0  0  0  0  0  0  0  0  0  0  0  0  0  0  0  0  0  0  0  0  0  0  0  0  0  153  17  86  0  0  0  0  0  0  0  0  0  0  0  0  0  0  0  0  0  0  0  0  0  0  0  0  0  0  0  0  0  0  0  0  0  0  0  0  0  0  0  94  103  137  102  0  0  0  0  0  0  0  0  0  0  0  
0  0  0  0  0  0  0  0  0  0  0  0  0  0  0  0  0  0  0  0  0  0  0  0  0  0  0  0  0  0  0  0  0  0  145  68  0  0  0  0  0  0  0  0  0  0  0  0  0  0  0  0  0  0  0  0  0  0  0  0  0  0  0  0  0  0  0  0  0  0  0  0  0  0  0  0  0  68  103  136  153  0  0  0  0  0  0  0  0  0  0  
0  0  0  0  0  0  0  0  0  0  0  0  0  0  0  0  0  0  0  0  0  0  0  0  0  0  0  0  0  0  0  0  0  0  137  93  0  0  0  0  0  0  0  0  0  0  0  0  0  0  0  0  0  0  0  0  0  0  0  0  0  0  0  0  0  0  145  188  154  43  0  0  0  0  0  0  0  0  137  111  153  0  0  0  0  0  0  0  0  0  0  
0  0  0  0  0  0  0  0  0  0  0  0  0  0  0  0  0  0  0  0  0  0  0  0  0  0  0  0  0  0  0  0  0  0  162  86  0  0  0  0  0  0  0  0  0  0  0  0  0  0  0  0  0  0  0  0  0  0  0  0  0  0  0  0  0  239  120  179  214  86  0  0  0  0  0  0  0  0  111  51  119  0  0  0  0  0  0  0  0  0  0  
0  0  0  0  0  0  0  0  0  0  0  0  0  0  0  0  0  0  0  0  0  0  0  0  0  0  0  0  0  0  0  0  0  0  0  0  0  0  0  0  0  0  0  0  0  0  0  0  0  0  0  0  0  0  0  0  0  0  0  0  0  0  0  0  145  77  93  51  102  0  0  0  0  0  0  0  0  0  111  76  238  0  0  0  0  0  0  0  0  0  0  
0  0  0  0  0  0  0  0  0  0  0  0  0  0  0  0  0  0  0  0  0  0  0  0  0  0  0  0  0  35  52  17  68  196  138  0  0  0  0  0  0  0  0  0  0  0  0  0  0  0  0  0  0  0  0  0  0  0  0  0  0  0  0  51  59  86  0  0  0  0  0  0  0  0  0  0  0  0  205  102  0  0  0  0  0  0  0  0  0  0  0  
0  0  0  0  0  0  0  0  0  0  0  0  0  0  0  0  0  0  0  0  0  0  0  0  0  0  0  0  105  52  53  104  42  69  136  0  0  0  0  0  0  0  0  0  0  0  0  0  0  0  0  0  0  0  0  0  0  0  0  0  0  0  0  0  0  0  0  0  0  0  0  0  0  0  0  0  0  179  33  204  0  0  0  0  0  0  0  0  0  0  0  
0  0  0  0  0  0  0  0  0  0  0  0  0  0  0  0  0  0  0  0  0  0  0  0  0  0  0  70  18  0  0  18  33  231  0  0  0  0  0  0  0  0  0  0  0  0  0  0  0  0  0  0  0  0  0  0  0  0  0  0  0  0  0  0  0  0  0  0  0  0  0  0  0  0  0  0  162  155  238  0  0  0  0  0  0  0  0  0  0  0  0  
0  0  0  0  0  0  0  0  0  0  0  0  0  0  0  0  0  0  0  0  0  0  0  0  0  0  0  52  35  0  0  70  203  86  0  0  0  0  0  0  0  0  0  0  0  0  0  0  0  0  0  0  0  0  0  0  0  0  0  0  0  0  0  0  0  0  17  137  162  0  0  0  0  0  0  111  119  0  0  0  0  0  0  0  0  0  0  0  0  0  0  
0  0  0  0  0  0  0  0  0  0  0  0  0  0  0  0  0  0  0  0  0  0  0  0  0  0  0  35  35  18  35  135  188  0  0  0  0  0  0  0  0  0  0  0  0  0  0  0  0  0  0  0  0  0  0  0  0  0  0  0  0  0  0  0  0  17  188  93  170  0  0  0  0  0  17  86  144  127  0  0  0  0  0  0  0  0  0  0  0  0  0  
0  0  0  0  0  0  0  0  0  0  0  0  0  0  0  0  0  0  0  0  0  0  0  0  0  0  0  35  52  18  26  222  0  0  0  0  0  0  0  0  0  0  0  0  0  0  0  0  0  0  0  0  0  0  0  0  0  0  0  0  0  0  0  0  0  205  86  51  214  0  0  0  0  0  0  111  144  143  94  0  0  0  0  0  0  0  0  0  0  0  0  
0  0  0  0  0  0  0  0  0  0  0  0  0  0  0  0  0  0  0  0  0  0  0  0  0  0  0  70  51  34  145  0  0  0  0  0  0  0  0  0  0  0  0  0  0  0  0  0  0  0  0  0  0  0  0  0  0  0  0  0  0  0  0  0  111  162  86  222  188  0  0  0  0  0  0  0  94  111  205  162  0  0  0  0  0  0  0  0  0  0  0  
0  0  0  0  0  0  0  0  0  0  0  0  0  0  0  0  0  0  0  0  0  0  0  0  0  0  0  103  66  10  170  94  0  0  0  0  0  0  0  0  0  0  0  0  0  0  0  0  0  0  0  0  0  0  0  0  0  0  0  0  0  0  0  0  43  119  144  188  0  0  0  0  0  0  0  0  0  0  43  205  205  94  0  0  0  0  0  0  0  0  0  
0  0  0  0  0  0  0  0  0  0  0  0  0  0  0  0  0  0  0  0  0  0  0  0  0  0  0  70  33  35  111  153  17  0  0  0  0  0  0  0  0  0  0  0  0  0  0  0  0  0  0  0  0  0  0  0  0  0  0  0  0  0  0  0  0  0  0  0  0  0  0  0  0  0  0  0  0  0  0  0  111  205  43  153  0  0  0  0  0  0  0  
0  0  0  0  0  0  0  0  0  0  0  0  0  0  0  0  0  0  0  0  0  0  0  0  0  0  0  103  66  0  18  154  137  0  0  0  0  0  0  0  0  0  0  0  0  0  0  0  0  0  0  0  0  0  0  0  0  0  0  0  0  0  0  0  0  0  0  0  0  0  0  0  0  0  0  0  0  0  0  0  0  162  229  153  0  0  0  0  0  0  0  
0  0  0  0  0  0  0  0  0  0  0  0  0  0  0  0  0  0  0  0  0  0  0  0  0  0  0  70  33  0  0  2  153  111  0  0  0  0  0  0  0  0  0  0  0  0  0  0  0  0  0  0  0  0  0  0  0  0  0  0  0  0  0  0  0  0  0  0  0  0  0  0  0  0  0  0  0  0  0  0  111  188  187  51  68  0  0  0  0  0  0  
0  0  0  0  0  0  0  0  0  0  0  0  0  0  0  0  0  0  0  0  0  0  0  0  0  0  0  103  66  0  0  18  60  153  111  0  0  0  0  0  0  0  0  0  0  0  0  0  0  0  0  0  0  0  0  0  0  0  0  0  0  0  0  0  0  0  0  0  0  0  0  0  0  0  0  0  0  0  0  230  128  94  137  68  136  0  0  0  0  0  0  
0  0  0  0  0  0  0  0  0  0  0  0  0  0  0  0  0  0  0  0  0  0  0  0  0  0  0  70  0  0  0  0  18  60  153  68  0  0  0  0  0  0  0  0  0  0  0  0  0  0  0  0  0  0  0  0  0  0  0  0  0  0  0  0  0  0  0  0  0  0  0  0  0  0  0  0  0  0  119  121  0  0  0  0  0  153  0  0  0  0  0  
0  0  0  0  0  0  0  0  0  0  0  0  0  0  0  0  0  0  0  0  0  0  0  0  0  0  0  70  0  0  0  0  0  18  103  188  43  0  0  0  0  0  0  0  0  0  0  0  0  0  0  0  0  0  0  0  0  0  0  0  0  0  0  0  0  0  0  0  0  0  0  0  0  0  0  0  0  0  154  51  0  0  0  0  153  153  0  0  0  0  0  
0  0  0  0  0  0  0  0  0  0  0  0  0  0  0  0  0  0  0  0  0  0  0  0  0  0  0  130  0  0  0  0  25  0  53  198  170  43  0  0  0  0  0  0  0  0  0  0  0  0  0  0  0  0  0  0  0  0  0  0  0  0  0  51  17  0  0  0  0  0  0  0  0  0  0  0  0  0  154  94  0  0  0  0  0  0  0  0  0  0  0  
0  0  0  0  0  0  0  0  0  0  0  0  0  0  0  0  0  0  0  0  0  0  0  0  0  0  171  20  0  8  25  25  50  8  0  35  144  145  17  0  0  0  0  0  0  0  0  0  0  0  0  0  0  0  0  0  0  0  0  0  0  43  213  188  188  43  0  0  0  0  0  0  0  0  0  0  0  0  111  154  0  0  0  0  94  0  0  0  0  0  0  
0  0  0  0  0  0  0  0  0  0  0  0  0  0  0  0  0  0  0  0  0  0  0  0  0  111  117  0  8  25  50  0  8  16  0  18  26  136  162  0  0  0  0  0  0  0  0  0  0  0  0  0  0  0  0  0  0  0  0  0  94  187  111  34  153  86  0  0  0  0  0  0  0  0  0  0  0  0  51  205  94  0  0  94  188  0  0  0  0  0  0  
0  0  0  0  0  0  0  0  0  0  0  0  0  0  0  0  0  0  0  0  0  0  0  0  0  95  70  0  0  0  0  0  0  0  0  0  18  27  171  154  0  0  0  0  0  0  0  0  0  0  0  0  0  0  0  0  0  0  0  51  68  128  171  25  205  111  0  0  0  0  0  0  0  0  0  0  0  0  0  111  205  94  17  102  0  0  0  0  0  0  0  
0  0  0  0  0  0  0  0  0  0  0  0  0  0  0  0  0  0  0  0  0  0  0  0  60  20  0  0  0  0  0  0  0  0  0  25  0  18  19  173  162  0  0  0  0  0  0  0  0  0  0  0  0  0  0  0  0  0  0  43  86  17  214  0  94  205  43  0  0  0  0  0  0  0  0  0  0  0  0  0  111  120  119  204  0  0  0  0  0  0  0  
0  0  0  0  0  0  0  0  0  0  0  0  0  0  0  0  0  0  0  0  0  0  0  0  70  18  0  0  0  0  33  0  0  0  25  50  8  0  0  27  171  145  17  0  0  0  0  0  0  0  0  0  0  0  0  0  0  0  0  0  0  43  187  0  0  162  154  0  0  0  0  0  0  0  0  0  0  0  0  0  136  172  102  0  0  0  0  0  0  0  0  
0  0  0  0  0  0  0  0  0  0  0  0  0  0  0  0  0  0  0  0  0  0  0  0  52  18  0  0  8  33  66  0  0  0  8  8  16  0  0  18  26  136  145  43  0  0  0  0  0  0  0  0  0  0  0  0  0  0  0  0  0  68  205  17  0  51  205  94  0  0  0  0  0  0  0  0  0  0  0  162  129  102  0  0  0  0  0  0  0  0  0  
0  0  0  0  0  0  0  0  0  0  0  0  0  0  0  0  0  0  0  0  0  0  0  0  154  36  0  8  16  0  0  0  0  8  25  0  0  0  0  0  18  26  112  188  43  0  0  0  0  0  0  0  0  0  0  0  0  0  0  0  0  0  188  68  0  0  111  205  94  0  0  0  0  0  0  0  0  68  205  59  188  0  0  0  0  0  0  0  0  0  0  
0  0  0  0  0  0  0  0  0  0  0  0  0  0  0  0  0  0  0  0  0  0  0  102  66  0  0  0  0  25  0  0  0  25  50  0  0  0  0  25  0  0  53  198  170  68  0  0  0  0  0  0  0  0  0  0  0  0  0  0  0  0  137  137  0  0  0  111  154  51  0  0  0  17  51  111  205  53  153  153  0  0  0  0  0  0  0  0  0  0  0  
0  0  0  0  0  0  0  0  0  0  0  0  0  0  0  0  0  0  0  0  0  0  0  68  35  0  0  25  25  50  0  8  0  0  0  0  0  25  25  42  0  0  0  35  137  170  111  0  0  0  0  0  0  0  0  0  0  0  0  0  0  0  68  205  43  0  0  51  163  85  111  60  60  69  61  120  127  254  0  0  0  0  0  0  0  0  0  0  0  0  0  
0  0  0  0  0  0  0  0  0  0  0  0  0  0  0  0  0  0  0  0  0  0  0  137  70  0  25  50  0  0  8  16  0  25  0  0  25  42  8  16  0  0  0  0  35  94  170  111  0  0  0  0  0  0  0  0  0  0  0  0  0  0  0  162  111  0  0  111  103  188  145  162  171  153  153  0  0  0  0  0  0  0  0  0  0  0  0  0  0  0  0  
0  0  0  0  0  0  0  0  0  0  0  0  0  0  0  0  0  0  0  0  0  0  102  99  0  0  0  8  0  0  0  0  25  50  8  0  8  16  0  0  0  0  25  0  0  35  94  153  111  0  0  0  0  0  0  0  0  0  0  0  0  0  0  94  188  17  0  188  68  94  0  0  0  0  0  0  0  0  0  0  0  0  0  0  0  0  0  0  0  0  0  
0  0  0  0  0  0  0  0  0  0  0  0  0  0  0  0  0  0  0  0  0  0  188  35  0  0  8  16  0  0  25  0  0  8  16  0  0  0  0  0  0  25  42  0  0  0  18  60  170  137  17  0  0  0  0  0  0  0  0  0  0  0  0  17  188  137  119  214  162  153  0  0  0  0  0  0  0  0  0  0  0  0  0  0  0  0  0  0  0  0  0  
0  0  0  0  0  0  0  0  0  0  0  0  0  0  0  0  0  0  0  0  0  153  211  70  0  0  0  0  0  25  50  0  0  0  0  0  0  0  0  0  8  8  16  0  0  0  0  35  68  136  170  68  0  0  0  0  0  0  0  0  0  0  0  0  68  137  223  94  103  212  94  94  111  94  94  94  60  94  102  153  0  0  0  0  0  0  0  0  0  0  0  
0  0  0  0  0  0  0  0  0  0  0  0  0  0  0  0  0  0  0  0  0  213  20  0  0  0  25  0  0  8  0  0  0  8  25  0  0  25  0  8  16  25  0  0  0  25  0  0  18  35  137  170  111  0  0  0  0  0  0  0  0  0  0  111  162  188  231  144  127  111  111  128  111  111  111  145  179  119  154  162  111  94  153  0  0  0  0  0  0  0  0  
0  0  0  0  0  0  0  0  0  0  0  0  0  0  0  0  0  0  0  0  153  184  0  0  0  25  42  0  8  16  0  0  33  25  50  0  25  42  0  0  25  50  0  0  43  68  0  0  0  0  35  94  188  137  0  0  0  0  0  0  0  68  248  94  34  53  130  127  0  0  0  0  0  0  0  0  0  0  43  94  111  170  169  94  0  0  0  0  0  0  0  
0  0  0  0  0  0  0  0  0  0  0  0  0  0  0  0  0  0  0  94  104  36  0  0  8  8  16  0  0  0  0  25  50  0  0  0  8  16  0  0  0  0  0  18  18  18  35  35  0  0  0  53  104  170  162  68  0  0  0  0  68  137  154  153  53  0  8  188  0  0  0  0  0  0  0  0  0  0  0  0  0  68  111  205  137  68  0  0  0  0  0  
0  0  0  0  0  0  0  0  0  0  0  0  0  0  0  0  0  0  94  101  36  0  0  8  16  0  0  0  25  0  0  0  0  0  0  0  0  0  0  0  0  0  0  0  18  35  35  35  35  18  0  0  35  43  121  170  111  0  0  0  0  0  17  188  53  0  71  17  0  0  0  0  0  0  0  0  0  0  0  0  0  0  0  68  137  162  94  0  0  0  0  
0  0  0  0  0  0  0  0  0  0  0  0  0  0  0  0  0  0  35  35  0  0  0  25  0  0  0  25  50  0  8  0  0  0  8  0  0  0  25  0  8  0  0  25  8  0  35  35  34  35  18  0  0  0  35  94  153  188  51  0  0  0  0  239  71  18  42  154  0  0  0  0  0  0  0  0  0  0  0  0  0  0  0  0  43  111  154  94  0  0  0  
0  0  0  0  0  0  0  0  0  0  0  0  0  0  0  0  0  0  35  153  53  0  25  50  0  0  0  0  8  8  16  0  0  8  16  25  0  25  42  8  16  0  25  42  16  0  0  18  35  52  18  18  0  0  0  18  53  190  170  137  43  0  51  162  52  18  102  94  0  0  0  0  0  0  0  0  0  0  0  0  0  0  0  0  0  51  111  137  102  0  0  
0  0  0  0  0  0  0  0  0  0  0  0  0  0  0  0  0  0  153  153  53  18  0  0  8  0  0  33  16  0  0  25  0  0  25  50  0  8  16  0  0  0  0  0  0  0  0  0  0  18  18  35  0  0  33  0  0  35  68  110  170  111  137  76  36  35  111  111  0  0  0  0  0  0  0  0  0  0  0  0  0  0  0  0  0  0  68  103  153  153  0  
0  0  0  0  0  0  0  0  0  0  0  0  0  0  0  0  0  0  0  17  52  35  0  8  16  25  25  50  0  0  25  50  0  0  0  0  0  0  0  0  25  0  0  0  0  0  0  25  8  0  35  52  18  33  84  0  0  0  18  35  94  127  230  83  0  70  94  137  0  0  0  51  0  0  0  0  0  0  0  0  0  0  0  0  0  0  43  154  137  255  0  
0  0  0  0  0  0  0  0  0  0  0  0  0  0  0  0  0  0  0  102  197  43  35  0  25  50  0  0  0  0  0  0  0  8  0  18  0  8  0  25  50  8  0  0  25  8  25  42  16  0  18  0  18  18  35  0  0  0  0  0  35  70  105  53  0  70  103  162  0  0  51  85  94  0  0  0  0  0  0  0  0  0  0  0  0  111  145  230  104  111  68  
0  0  0  0  0  0  0  0  0  0  0  0  0  0  0  0  0  0  102  69  162  102  70  0  0  0  0  0  8  18  0  0  8  16  18  35  8  16  0  0  8  16  0  25  42  16  0  0  0  0  18  18  53  35  35  0  0  0  0  0  0  0  53  106  0  35  25  170  0  0  17  94  111  68  0  0  0  0  0  0  0  0  0  0  136  154  162  188  17  112  86  
0  0  0  0  0  0  0  0  0  0  0  0  0  0  0  0  0  0  111  145  68  205  172  53  0  0  8  8  34  36  18  0  25  0  70  52  0  0  25  0  0  0  0  0  0  0  0  0  0  0  0  53  71  53  35  0  0  33  0  18  0  25  0  0  0  18  19  170  17  0  0  111  43  188  17  0  0  0  0  0  0  0  0  111  146  230  34  17  25  112  102  
0  0  0  0  0  0  0  0  0  0  0  0  0  0  0  0  0  0  0  86  0  103  188  79  0  8  16  0  0  18  18  25  50  35  17  18  0  25  50  0  0  0  0  0  0  0  0  0  25  0  0  35  52  52  35  0  33  101  34  77  84  34  59  16  18  0  35  153  43  0  0  111  77  248  162  111  94  68  94  94  17  51  111  162  112  86  0  0  102  128  204  
0  0  0  0  0  0  0  0  0  0  0  0  0  0  0  0  0  111  188  0  0  0  162  146  53  0  0  0  25  18  18  18  0  35  34  18  0  0  0  0  8  25  0  0  8  0  25  33  50  0  0  0  53  18  53  0  70  110  68  36  43  86  43  77  95  24  70  162  137  68  94  222  34  162  188  111  120  94  94  94  179  25  111  119  238  0  0  59  130  188  0  
0  0  0  0  0  0  0  0  0  0  0  0  0  0  0  0  0  0  0  0  0  0  43  188  147  35  0  25  50  18  18  18  0  18  35  36  0  0  8  8  25  50  0  8  25  25  42  16  0  0  0  8  53  35  70  70  75  70  0  0  0  0  0  0  35  94  129  128  137  120  59  128  238  93  33  34  0  0  111  162  240  118  0  0  0  0  0  180  153  0  0  
0  0  0  0  0  0  0  0  0  0  0  0  0  0  0  0  145  120  0  0  0  0  0  94  170  94  18  0  0  0  18  18  0  53  71  18  0  8  16  0  0  0  0  25  50  0  0  0  0  0  8  16  18  52  35  33  87  0  0  0  0  0  43  43  0  0  69  129  172  135  238  153  169  205  60  51  0  0  0  25  50  0  0  0  0  0  43  60  153  0  0  
0  0  0  0  0  0  0  0  0  0  0  0  0  0  0  0  0  0  0  0  0  0  0  0  111  153  34  35  0  0  18  36  0  35  35  36  0  0  25  0  0  0  0  0  0  0  0  0  0  25  0  0  18  70  69  25  94  0  0  0  0  43  43  69  129  0  0  0  61  61  111  60  94  0  154  205  94  17  0  0  0  0  0  0  0  0  205  153  0  0  0  
0  0  0  0  0  0  0  0  0  0  0  0  0  0  0  162  86  0  0  0  0  0  0  0  0  137  170  94  35  0  0  0  35  53  70  18  0  25  50  0  0  0  0  8  0  0  0  0  33  50  0  0  0  53  53  0  112  0  0  0  0  0  69  129  207  129  35  0  0  18  69  103  134  211  119  111  188  137  162  111  43  0  0  0  0  170  85  153  0  0  0  
0  0  0  0  0  0  0  0  0  0  0  0  0  0  0  0  0  0  0  0  0  0  0  0  0  0  111  170  94  18  0  35  52  88  52  18  0  0  0  0  8  25  8  16  0  0  0  8  16  0  0  0  0  18  35  18  112  86  0  0  0  0  0  51  129  188  129  86  0  0  0  18  86  162  170  68  68  93  161  111  188  145  111  94  153  130  136  0  0  0  0  
0  0  0  0  0  0  0  0  0  0  0  0  0  0  162  86  0  0  0  0  0  0  0  0  0  0  0  111  153  60  35  36  18  87  52  36  0  0  8  8  25  50  0  0  0  25  0  0  0  0  0  33  0  0  35  36  120  154  43  0  0  0  0  0  35  129  172  103  129  35  0  0  0  61  61  111  68  255  255  85  60  127  25  16  59  188  0  0  0  0  0  
0  0  0  0  0  0  0  0  0  0  0  0  0  0  0  0  0  0  0  0  0  0  0  0  0  0  0  0  111  170  119  26  88  35  70  0  0  8  16  0  0  0  0  0  25  42  18  18  53  16  43  50  53  18  71  129  51  43  51  0  0  0  0  0  0  0  69  129  223  86  86  26  0  0  18  61  95  110  94  0  153  204  127  153  153  0  0  0  0  0  0  
0  0  0  0  0  0  0  0  0  0  0  0  0  162  86  0  0  0  0  0  0  0  0  0  0  0  0  0  0  68  145  170  102  51  70  0  0  0  25  0  0  0  0  0  26  69  42  120  17  145  171  188  223  85  16  43  112  35  70  43  26  0  0  0  0  0  0  0  86  86  111  112  69  0  0  0  35  35  129  60  153  0  0  0  0  0  0  0  0  0  0  
0  0  0  0  0  0  0  0  0  0  0  0  0  0  0  0  0  0  0  0  0  0  0  0  0  0  0  0  0  0  0  68  154  205  87  18  0  25  50  0  0  0  33  36  18  186  154  136  0  0  0  0  68  137  188  120  112  61  43  60  69  43  0  0  0  0  0  0  0  35  112  155  95  112  35  0  0  0  69  162  212  68  0  0  0  0  0  0  0  0  0  
0  0  0  0  0  0  0  0  0  0  0  0  145  120  0  0  0  0  0  0  0  0  0  0  0  0  0  0  0  0  0  0  0  188  86  18  0  0  0  0  0  33  137  60  51  86  0  0  0  0  0  0  0  0  68  188  196  86  43  69  95  69  112  18  0  0  0  0  0  0  0  43  112  171  86  112  18  0  0  35  61  129  68  0  0  0  0  0  0  0  0  
0  0  0  0  0  0  0  0  0  0  0  0  0  0  0  0  0  0  0  0  0  0  0  0  0  0  0  0  0  0  0  0  0  137  42  18  0  0  8  0  0  88  188  188  0  0  0  0  0  0  0  0  0  0  0  43  162  111  69  17  69  112  171  112  69  0  0  0  0  0  0  0  18  86  112  206  86  86  26  0  0  61  129  94  102  0  0  0  0  0  0  
0  0  0  0  0  0  0  0  0  0  0  94  154  0  0  0  0  0  0  0  0  0  0  0  0  0  0  0  0  0  0  0  0  111  110  35  0  8  25  0  70  135  188  0  0  0  0  0  0  0  0  0  0  0  0  0  94  145  137  69  0  35  112  155  112  78  0  0  0  0  0  0  0  0  0  86  86  103  86  78  0  0  35  43  129  94  0  0  0  0  0  
0  0  0  0  0  0  0  0  0  0  0  137  93  0  0  0  0  0  0  0  0  0  0  0  0  0  0  0  0  0  0  0  0  43  170  60  0  25  50  35  75  222  0  0  0  0  0  0  0  0  0  0  0  0  0  0  0  94  111  52  18  0  0  112  146  87  112  35  0  0  0  0  0  0  0  0  43  86  94  138  69  86  35  26  35  111  68  0  0  0  0  
0  0  0  0  0  0  0  0  0  0  0  0  86  0  0  0  0  0  0  0  0  0  0  0  0  0  0  0  0  0  0  0  0  0  145  87  35  0  0  37  214  0  0  0  0  0  0  0  0  0  0  0  0  0  0  0  0  0  94  94  18  35  0  0  69  112  171  112  86  0  0  0  0  0  0  0  0  0  18  69  86  137  17  69  87  94  111  68  0  0  0  
0  0  0  0  0  0  0  0  0  0  94  128  0  0  0  0  0  0  0  0  0  0  0  0  0  0  0  0  0  0  0  0  0  0  68  170  53  0  18  75  188  0  0  0  0  0  0  0  0  0  0  0  0  0  0  0  0  0  0  94  111  52  69  0  0  18  112  138  111  112  35  0  0  0  0  0  0  0  0  0  0  43  69  69  51  102  68  111  60  0  0  
0  0  0  0  0  0  0  0  0  0  111  120  0  0  0  0  0  0  0  0  0  0  0  0  0  0  0  0  0  0  0  0  0  0  0  188  147  35  2  147  0  0  0  0  0  0  0  0  0  0  0  0  0  0  0  0  0  0  0  0  94  145  120  69  0  0  0  61  112  171  112  69  0  0  0  0  0  0  0  0  0  0  0  18  18  43  68  69  129  153  0  
0  0  0  0  0  0  0  0  0  0  137  93  0  0  0  0  0  0  0  0  0  0  0  0  0  0  0  0  0  0  0  0  0  0  0  94  170  60  26  143  0  0  0  0  0  0  0  0  0  0  0  0  0  0  0  0  0  0  0  0  0  94  145  120  69  0  0  0  18  112  155  138  43  0  0  0  0  0  0  0  0  0  0  0  0  0  0  0  24  238  0  
0  0  0  0  0  0  0  0  0  0  162  86  0  0  0  0  0  0  0  0  0  0  0  0  0  0  0  0  0  0  0  0  0  0  0  0  145  85  59  111  0  0  0  0  0  0  0  0  0  0  0  0  0  0  0  0  0  0  0  0  0  0  94  145  120  78  0  0  0  0  0  43  86  0  0  0  0  0  0  0  0  0  0  0  0  0  0  0  61  76  0  
0  0  0  0  0  0  0  0  0  0  205  43  0  0  0  0  0  0  0  0  0  0  0  0  0  0  0  0  0  0  0  0  0  0  0  0  68  170  118  162  0  0  0  0  0  0  0  0  0  0  0  0  0  0  0  0  0  0  0  0  0  0  0  94  154  138  86  0  0  0  0  0  0  0  0  0  0  0  0  26  43  0  43  0  0  0  0  0  69  68  0  
0  0  0  0  0  0  0  0  0  0  162  51  0  0  0  0  0  0  0  0  0  0  0  0  0  0  0  0  0  0  0  0  0  0  0  0  0  111  162  170  43  0  0  0  0  0  0  0  0  0  0  0  0  0  0  0  0  0  0  0  0  0  0  0  94  162  180  69  0  0  0  0  0  0  0  0  0  0  26  43  43  78  86  112  86  43  18  26  147  136  0  
0  0  0  0  0  0  0  0  0  0  154  102  0  0  0  0  0  0  0  0  0  0  0  0  0  0  0  0  0  0  0  0  0  0  0  0  0  0  154  51  145  0  0  0  0  0  0  0  0  0  0  0  0  0  0  0  0  0  0  0  0  0  0  0  0  68  145  120  69  0  0  0  0  0  0  0  0  0  0  43  51  86  112  120  78  111  16  163  86  0  0  
0  0  0  0  0  0  0  0  0  0  205  43  0  0  0  0  0  0  0  0  0  0  0  0  0  0  0  0  0  0  0  0  0  0  0  0  0  0  0  145  222  137  0  0  0  0  0  0  0  0  0  0  0  0  0  0  0  0  0  0  0  0  0  0  0  0  94  145  120  61  0  0  0  0  0  0  0  0  0  0  0  0  18  51  129  205  238  0  0  0  0  
0  0  0  0  0  0  0  0  0  0  162  86  0  0  0  0  0  0  0  0  0  0  0  0  0  0  0  0  0  0  0  0  0  0  0  0  0  0  0  68  69  205  111  0  0  0  0  0  0  0  0  0  0  0  0  0  0  0  0  0  0  0  0  0  0  0  0  94  137  87  51  0  0  0  0  0  0  0  0  0  0  0  0  0  43  86  0  0  0  0  0  
0  0  0  0  0  0  0  0  0  0  205  17  0  0  0  0  0  0  0  0  0  0  0  0  0  0  0  0  0  0  0  0  0  0  0  0  0  0  0  68  206  137  128  94  0  0  0  0  0  0  0  0  0  0  0  0  0  0  0  0  0  0  0  0  0  0  0  0  111  127  61  69  0  0  0  0  0  0  0  0  0  0  0  0  43  129  0  0  0  0  0  
0  0  0  0  0  0  0  0  0  0  188  43  0  0  0  0  0  0  0  0  0  0  0  0  0  0  0  0  0  0  0  0  0  0  0  0  0  0  0  137  93  136  35  112  68  0  0  0  0  0  0  0  0  0  0  0  0  0  0  0  0  0  0  0  0  0  0  0  0  137  145  86  18  0  0  0  0  0  0  0  0  43  0  0  0  172  0  0  0  0  0  
0  0  0  0  0  0  0  0  0  0  162  68  0  0  0  0  0  0  0  0  0  0  0  0  0  0  0  0  0  0  0  0  0  0  0  0  0  0  0  205  128  70  17  25  77  43  0  0  0  0  0  0  0  0  0  0  0  0  0  0  0  0  0  0  0  0  0  0  0  0  162  162  78  0  0  0  0  0  0  43  43  86  86  35  69  86  0  0  0  0  0  
0  0  0  0  0  0  0  0  0  0  137  94  0  0  0  0  0  0  0  0  0  0  0  0  0  0  0  0  0  0  0  0  0  0  0  0  0  0  68  146  172  0  0  0  16  59  43  0  0  0  0  0  0  0  0  0  0  0  0  0  0  0  0  0  0  0  0  0  0  0  68  154  121  51  0  0  0  0  43  43  164  17  94  44  43  94  0  0  0  0  0  
0  0  0  0  0  0  0  0  0  0  111  111  0  0  0  0  0  0  0  0  0  0  0  0  0  0  0  0  0  0  0  0  0  0  0  0  0  0  94  68  137  0  0  0  0  16  59  59  0  0  0  0  0  0  0  0  0  0  0  0  0  0  0  0  0  0  0  0  0  0  0  111  84  86  0  0  0  0  43  78  36  26  61  18  61  145  0  0  0  0  0  
0  0  0  0  0  0  0  0  0  0  94  119  0  0  0  0  0  0  0  0  0  0  43  94  111  119  111  51  17  0  0  0  0  0  0  0  0  0  111  60  70  0  0  0  0  0  0  59  76  43  0  0  0  0  0  0  0  0  0  0  0  0  0  0  0  0  0  0  0  0  0  43  162  111  18  0  0  26  18  51  69  77  104  26  86  43  0  0  0  0  0  
0  0  0  0  0  0  0  0  0  0  102  205  68  0  0  0  0  0  0  0  0  111  102  43  94  110  146  51  137  94  0  0  0  0  0  0  0  0  154  104  17  0  0  0  0  0  0  17  50  59  68  0  0  0  0  0  0  0  0  0  0  0  0  0  0  0  0  0  0  0  0  0  137  86  43  0  26  34  36  69  35  0  43  0  86  68  0  0  0  0  0  
0  0  0  0  0  0  0  0  0  0  0  137  94  0  0  0  0  0  0  43  162  51  120  111  33  25  68  137  163  137  111  0  0  0  0  0  0  0  145  86  34  0  0  0  0  0  0  0  0  9  77  111  51  0  0  0  0  0  0  0  0  0  0  0  0  0  0  0  0  0  0  0  94  51  43  0  0  0  69  103  44  112  51  35  79  68  0  0  0  0  0  
0  0  0  0  0  0  0  0  0  0  0  111  111  0  0  0  0  0  111  119  145  86  0  0  0  0  0  17  137  163  137  68  0  0  0  0  0  0  162  120  0  0  0  0  0  0  0  0  0  0  52  112  162  94  0  0  0  0  0  0  0  0  0  0  0  0  0  0  0  0  0  0  68  76  69  0  0  0  0  95  51  87  67  52  51  136  0  0  0  0  0  
0  0  0  0  0  0  0  0  0  0  0  94  205  43  0  0  0  136  69  222  0  0  0  0  0  0  0  0  0  137  138  137  0  0  0  0  0  0  162  86  0  0  0  0  0  0  0  0  0  0  0  103  171  111  111  51  0  0  0  0  0  0  0  0  0  0  0  0  0  0  0  0  43  102  87  0  0  0  112  69  78  86  35  26  120  0  0  0  0  0  0  
0  0  0  0  0  0  0  0  0  0  0  0  162  94  0  0  136  69  188  0  0  0  0  0  0  0  0  0  0  68  137  137  25  0  0  0  0  17  145  103  0  0  0  0  0  0  0  0  0  0  0  0  52  52  112  111  145  94  0  0  0  0  0  0  0  0  0  0  0  0  0  0  43  102  112  18  0  43  51  78  86  137  70  43  104  0  0  0  0  0  0  
0  0  0  0  0  0  0  0  0  0  0  0  111  205  0  111  112  222  0  0  0  0  0  0  0  0  0  0  0  0  137  155  68  0  0  0  0  0  162  120  17  0  0  0  0  0  0  0  0  0  0  0  0  0  52  86  120  145  162  111  0  0  0  0  0  0  0  0  0  0  0  0  25  206  128  69  69  0  0  0  0  0  0  61  102  0  0  0  0  0  0  
0  0  0  0  0  0  0  0  0  0  0  0  0  205  137  170  68  0  0  0  0  0  0  0  0  0  0  0  0  0  94  77  94  0  0  0  0  0  145  69  34  0  0  0  0  0  0  0  0  0  0  0  0  0  0  17  86  103  154  111  162  111  51  0  0  0  0  0  0  0  0  0  68  129  104  69  69  86  69  69  69  69  69  96  204  0  0  0  0  0  0  
0  0  0  0  0  0  0  0  0  0  0  0  0  111  34  170  0  0  0  0  0  0  0  0  0  0  0  0  0  0  43  94  111  0  0  0  0  0  145  94  35  0  0  0  0  0  0  0  0  0  0  0  0  0  0  0  0  0  52  103  154  77  162  137  68  0  0  0  0  0  0  0  179  86  17  86  103  120  86  34  17  34  34  68  0  0  0  0  0  0  0  
0  0  0  0  0  0  0  0  0  0  0  0  0  102  44  136  0  0  0  0  0  0  0  0  0  0  0  0  0  0  0  111  128  0  0  0  0  0  137  69  52  0  0  0  0  0  0  0  0  0  0  0  0  0  0  0  0  0  0  0  35  103  128  147  111  111  94  68  43  51  17  162  154  155  0  0  35  35  69  103  154  52  43  136  0  0  0  0  0  0  0  
0  0  0  0  0  0  0  0  0  0  0  0  0  213  188  0  0  0  0  0  0  0  0  0  0  0  0  0  0  0  0  94  111  0  0  0  0  0  111  17  86  0  0  0  0  0  0  0  0  0  0  0  0  0  0  0  0  0  0  0  0  0  0  52  52  69  44  51  110  145  205  68  155  34  0  35  35  35  103  129  95  121  128  0  0  0  0  0  0  0  0  
0  0  0  0  0  0  0  0  0  0  0  0  102  138  0  0  0  0  0  0  0  0  0  0  0  0  0  0  0  0  0  111  128  0  0  0  0  0  94  128  103  0  0  0  0  0  0  0  0  0  0  0  0  0  0  0  0  0  0  0  0  0  0  17  52  103  36  86  103  120  120  104  0  0  0  0  52  103  129  146  104  68  188  0  0  0  0  0  0  0  0  
0  0  0  0  0  0  0  0  0  0  0  0  231  136  0  0  0  0  0  0  0  0  0  0  0  0  0  0  0  0  0  94  111  0  0  0  0  0  17  162  111  0  0  0  0  0  0  0  0  0  0  0  0  0  0  0  0  0  0  0  0  0  17  52  86  120  86  103  52  0  0  0  0  35  86  17  0  0  17  34  52  120  0  0  0  0  0  0  0  0  0  
0  0  0  0  0  0  0  0  0  0  0  94  154  0  0  0  0  0  0  0  0  0  0  0  0  0  0  0  0  0  0  111  128  0  0  0  0  0  0  154  112  35  0  0  0  0  0  0  0  0  0  0  0  0  0  0  0  0  0  0  0  0  0  0  17  86  103  154  86  103  86  35  52  86  86  86  52  52  86  103  224  153  0  0  0  0  0  0  0  0  0  
0  0  0  0  0  0  0  0  0  0  0  231  111  0  0  0  0  0  0  0  0  0  0  0  0  0  0  0  0  0  0  111  94  0  0  0  0  0  0  137  112  52  0  0  0  0  0  0  0  0  0  0  0  0  0  0  0  0  0  0  0  0  0  0  0  35  17  86  103  120  137  35  52  138  85  103  52  86  103  94  0  153  0  0  0  0  0  0  0  0  0  
0  0  0  0  0  0  0  0  0  0  94  86  50  0  0  0  0  0  0  0  0  0  0  0  0  0  0  0  0  0  17  128  120  0  0  0  0  0  0  68  111  86  0  0  0  0  0  0  0  0  0  0  0  0  0  0  0  0  0  0  0  0  0  0  35  53  86  103  35  0  52  52  69  35  53  17  25  0  87  153  153  0  0  0  0  0  0  0  0  0  0  
0  0  0  0  0  0  0  0  0  0  188  179  0  0  0  0  0  0  0  0  0  0  0  0  0  0  0  0  0  0  68  26  93  0  0  0  0  0  0  0  145  137  52  0  0  0  0  0  0  0  0  0  0  0  0  0  0  0  0  0  0  0  0  0  0  86  103  136  86  52  0  17  86  103  17  25  50  44  222  0  0  0  0  0  0  0  0  0  0  0  0  
0  0  0  0  0  0  0  0  0  94  68  86  0  0  0  0  0  0  0  0  0  0  0  0  0  0  0  0  0  0  94  68  86  0  0  0  0  0  0  0  94  111  69  35  0  0  0  0  0  0  0  0  0  0  0  0  0  0  0  0  0  0  0  0  0  0  35  86  120  104  34  86  68  120  52  0  18  137  0  0  0  0  0  0  0  0  0  0  0  0  0  
0  0  0  0  0  0  0  0  0  188  154  0  0  0  0  0  0  0  0  0  0  0  0  0  0  0  0  0  0  0  111  119  0  0  0  0  0  0  0  0  0  94  94  61  35  0  0  0  0  0  0  0  0  0  0  0  0  0  0  0  0  0  0  0  0  0  0  0  0  17  34  35  86  120  104  18  137  0  0  0  0  0  0  0  0  0  0  0  0  0  0  
0  0  0  0  0  0  0  0  94  69  136  0  0  0  0  0  0  0  0  0  0  0  0  0  0  0  0  0  0  0  187  127  0  0  0  0  0  0  0  0  0  0  68  94  61  86  0  0  0  0  0  0  0  0  0  0  0  0  0  0  0  0  0  0  0  0  103  86  103  35  35  17  0  0  53  137  0  0  0  0  0  0  0  0  0  0  0  0  0  0  0  
0  0  0  0  0  0  0  0  221  180  0  0  0  0  0  0  0  0  0  0  0  0  0  0  0  0  0  0  0  68  86  137  111  68  25  0  0  0  0  0  0  0  0  68  145  94  103  17  0  0  0  0  0  0  0  0  0  0  0  0  0  0  0  0  0  103  120  103  154  35  53  34  52  88  204  0  0  0  0  0  0  0  0  0  0  0  0  0  0  0  0  
0  0  0  0  0  0  0  153  144  188  0  0  0  0  0  0  0  0  0  0  0  0  0  0  0  0  0  0  0  154  85  94  137  59  103  78  111  94  68  68  51  68  111  137  248  94  180  78  35  0  0  0  0  0  0  0  0  0  0  0  0  0  86  103  0  0  0  17  34  0  0  138  67  204  0  0  0  0  0  0  0  0  0  0  0  0  0  0  0  0  0  
0  0  0  0  0  0  0  51  197  0  0  0  0  0  0  0  0  0  0  0  0  0  0  0  0  0  0  0  43  60  153  0  153  204  127  160  111  137  137  154  171  180  120  43  103  68  137  180  61  35  17  0  0  0  0  0  0  0  0  0  17  86  103  154  0  0  0  0  0  86  232  153  212  102  94  102  0  0  0  0  0  0  0  0  0  0  0  0  0  0  0  
0  0  0  0  0  0  0  188  179  0  0  0  0  0  0  0  0  0  0  0  0  0  0  0  0  0  0  0  94  120  0  0  0  0  0  0  0  0  0  0  0  0  51  154  205  111  60  68  94  112  42  60  0  0  0  0  0  0  0  17  86  0  52  104  0  0  17  52  189  94  51  162  76  111  119  111  102  0  0  0  0  0  0  0  0  0  0  0  0  0  0  
0  0  0  0  0  0  94  94  86  0  0  0  0  0  0  0  0  0  0  0  0  0  0  0  0  0  0  0  214  204  0  0  0  0  0  0  0  0  0  0  0  0  0  0  94  145  103  137  17  51  119  179  9  35  0  0  0  0  0  86  172  0  0  0  0  120  104  51  188  86  77  231  86  0  94  103  136  0  0  0  0  0  0  0  0  0  0  0  0  0  0  
0  0  0  0  0  0  221  180  0  0  0  0  0  0  0  0  0  0  0  0  0  0  0  0  0  0  0  154  145  0  0  0  0  0  0  0  0  0  0  0  0  0  0  0  0  102  136  205  162  68  0  68  94  129  9  52  35  17  0  0  0  0  52  86  198  85  179  197  51  52  188  0  0  0  0  137  94  153  0  0  0  0  0  0  0  0  0  0  0  0  0  
0  0  0  0  0  153  101  145  0  0  0  0  0  0  0  0  0  0  0  0  0  0  0  0  0  0  43  85  145  0  0  0  0  0  0  0  0  0  0  0  0  0  0  0  0  0  153  153  137  154  111  0  0  68  111  128  35  86  86  103  86  130  111  18  214  188  0  17  128  145  0  0  0  0  0  111  127  212  0  0  0  0  0  0  0  0  0  0  0  0  0  
0  0  0  0  0  94  68  86  0  0  0  0  0  0  0  0  0  0  0  0  0  0  0  0  0  0  205  188  0  0  0  0  0  0  0  0  0  0  0  0  0  0  0  0  0  0  0  0  51  94  111  154  0  0  0  111  145  145  119  111  153  171  111  51  0  0  0  68  42  86  0  0  0  0  0  43  111  120  0  0  0  0  0  0  0  0  0  0  0  0  0  
0  0  0  0  0  94  154  0  0  0  0  0  0  0  0  0  0  0  0  0  0  0  0  0  0  162  222  0  0  0  0  0  0  0  0  0  0  0  0  0  0  0  0  0  0  0  0  0  0  94  137  222  154  0  0  0  0  43  68  136  17  145  171  0  0  0  0  94  68  0  0  0  0  0  0  0  137  94  0  0  0  0  0  0  0  0  0  0  0  0  0  
0  0  0  0  0  239  136  0  0  0  0  0  0  0  0  0  0  0  0  0  0  0  0  0  111  147  0  0  0  0  0  0  0  0  0  0  0  0  0  0  0  0  0  0  0  0  0  0  0  0  119  187  230  137  0  0  0  0  0  0  68  60  102  0  0  0  43  50  93  0  0  0  0  0  0  0  111  94  0  0  0  0  0  0  0  0  0  0  0  0  0  
0  0  0  0  102  111  0  0  0  0  0  0  0  0  0  0  0  0  0  0  0  0  0  94  103  254  0  0  0  0  0  0  0  0  0  0  0  0  0  0  0  0  0  0  0  0  0  0  0  0  0  127  186  196  94  0  0  0  0  0  25  50  0  0  0  0  68  51  86  0  0  0  0  0  0  0  128  102  0  0  0  0  0  0  0  0  0  0  0  0  0  
0  0  0  0  94  179  0  0  0  0  0  0  0  0  0  0  0  0  0  0  0  0  51  120  188  0  0  0  0  0  0  0  0  0  0  0  0  0  0  0  0  0  0  0  0  0  0  0  0  0  0  0  127  143  111  68  0  0  0  0  0  0  0  0  0  0  111  94  0  0  0  0  0  0  0  17  112  153  0  0  0  0  0  0  0  0  0  0  0  0  0  
0  0  0  0  162  86  0  0  0  0  0  0  0  0  0  0  0  0  0  0  0  0  222  221  0  0  0  0  0  0  0  0  0  0  0  0  0  0  0  0  0  0  0  0  0  0  0  0  0  0  0  0  0  94  137  137  43  0  0  0  0  0  0  0  0  17  128  94  0  0  0  0  0  0  0  43  34  153  0  0  0  0  0  0  0  0  0  0  0  0  0  
0  0  0  0  0  0  0  0  0  0  0  0  0  0  0  0  0  0  0  0  0  222  221  221  0  0  0  0  0  0  0  0  0  0  0  0  0  0  0  0  0  0  0  0  0  0  0  0  0  0  0  0  0  0  68  162  111  17  0  0  0  0  0  0  0  68  69  145  0  0  0  0  0  0  0  68  180  0  0  0  0  0  0  0  0  0  0  0  0  0  0  
0  0  0  188  25  0  0  0  0  0  0  0  0  0  0  0  0  0  0  0  222  188  0  0  0  0  0  0  0  0  0  0  0  0  0  0  0  0  0  0  0  0  0  0  0  0  0  0  0  0  0  0  0  0  0  94  188  111  0  0  0  0  0  0  0  111  76  86  0  0  0  0  0  0  0  179  153  0  0  0  0  0  0  0  0  0  0  0  0  0  0  
0  0  0  0  50  0  0  0  0  0  0  0  0  0  0  0  0  0  0  222  188  0  0  0  0  0  0  0  0  0  0  0  0  0  0  0  0  0  0  0  0  0  0  0  0  0  0  0  0  0  0  0  0  0  0  0  94  205  94  0  0  0  0  0  0  187  144  0  0  0  0  0  0  0  68  85  153  0  0  0  0  0  0  0  0  0  0  0  0  0  0  
0  0  221  32  0  0  0  0  0  0  0  0  0  0  0  0  0  0  222  188  0  0  0  0  0  0  0  0  0  0  0  0  0  0  0  0  0  0  0  0  0  0  0  0  0  0  0  0  0  0  0  0  0  0  0  0  0  111  205  60  0  0  0  0  68  52  171  0  0  0  0  0  0  0  248  136  0  0  0  0  0  0  0  0  0  0  0  0  0  0  0  
0  0  205  0  0  0  0  0  0  0  0  0  0  0  0  0  0  205  120  153  0  0  0  0  0  0  0  0  0  0  0  0  0  0  0  0  0  0  0  0  0  0  0  0  0  0  0  0  0  0  0  0  0  0  0  0  0  0  145  205  43  0  0  0  162  77  34  0  0  0  0  0  0  205  127  0  0  0  0  0  0  0  0  0  0  0  0  0  0  0  0  
0  0  0  0  0  0  0  0  0  0  0  0  0  0  0  0  205  52  128  212  51  17  43  94  0  0  0  0  0  0  0  0  0  0  0  0  0  0  0  0  0  0  0  0  0  0  0  0  0  0  0  0  0  0  0  0  0  0  0  162  205  68  0  68  112  145  0  0  0  0  0  0  162  33  254  0  0  0  0  0  0  0  0  0  0  0  0  0  0  0  0  
0  221  49  0  0  0  0  0  0  0  0  0  0  0  17  222  68  144  111  154  188  214  170  94  51  247  0  0  0  0  0  0  0  0  0  0  0  0  0  0  0  0  0  0  0  0  0  0  0  0  0  0  0  0  0  0  0  0  0  0  137  205  68  154  128  86  0  0  0  0  0  136  61  188  0  0  0  0  0  0  0  0  0  0  0  0  0  0  0  0  0  
0  188  34  0  0  0  0  0  0  0  0  0  0  60  171  171  102  0  0  0  0  43  111  154  51  247  0  0  0  0  0  0  0  0  0  0  0  0  0  0  0  0  0  0  0  0  0  0  0  0  0  0  0  0  0  0  0  0  0  0  0  137  205  248  154  94  0  0  0  43  179  34  238  0  0  0  0  0  0  0  0  0  0  0  0  0  0  0  0  0  0  
0  0  0  0  0  0  0  0  0  0  0  17  94  76  188  0  0  0  0  0  0  0  0  43  111  111  0  0  0  0  0  0  0  0  0  0  0  0  0  0  0  0  0  0  0  0  0  0  0  0  0  0  0  0  0  0  0  0  0  0  0  0  94  137  68  205  137  111  154  128  153  153  0  0  0  0  0  0  0  0  0  0  0  0  0  0  0  0  0  0  0  
0  68  0  0  0  0  0  0  0  0  68  111  25  136  0  0  0  0  0  0  0  0  0  0  94  137  0  0  0  0  0  0  0  0  0  0  0  0  0  0  0  0  0  0  0  0  0  0  0  0  0  0  0  0  0  0  0  0  0  0  0  0  0  43  86  68  187  94  102  204  0  0  0  0  0  0  0  0  0  0  0  0  0  0  0  0  0  0  0  0  0  
255  111  0  0  0  0  0  0  0  51  94  145  86  0  0  0  0  0  0  0  0  0  0  0  68  163  0  0  0  0  0  0  0  0  0  0  0  0  0  0  0  0  0  0  0  0  0  0  0  0  0  0  0  0  0  0  0  0  0  0  0  0  0  0  0  229  229  0  0  0  0  0  0  0  0  0  0  0  0  0  0  0  0  0  0  0  0  0  0  0  0  
0  50  0  0  0  0  0  0  0  0  0  0  0  0  0  0  0  0  0  0  0  0  0  0  137  128  0  0  0  0  0  0  0  0  0  0  0  0  0  0  0  0  0  0  0  0  0  0  0  0  0  0  0  0  0  0  0  0  0  0  0  0  0  0  0  0  0  0  0  0  0  0  0  0  0  0  0  0  0  0  0  0  0  0  0  0  0  0  0  0  0  
111  43  0  0  0  0  0  0  0  0  0  0  0  0  0  0  0  0  0  0  0  0  0  111  162  188  0  0  0  0  0  0  0  0  0  0  0  0  0  0  0  0  0  0  0  0  0  0  0  0  0  0  0  0  0  0  0  0  0  0  0  0  0  0  0  0  0  0  0  0  0  0  0  0  0  0  0  0  0  0  0  0  0  0  0  0  0  0  0  0  0  
162  111  0  0  0  0  0  0  0  0  0  0  0  0  0  0  0  0  0  0  0  43  179  104  136  0  0  0  0  0  0  0  0  0  0  0  0  0  0  0  0  0  0  0  0  0  0  0  0  0  0  0  0  0  0  0  0  0  0  0  0  0  0  0  0  0  0  0  0  0  0  0  0  0  0  0  0  0  0  0  0  0  0  0  0  0  0  0  0  0  0  
94  205  60  43  0  0  0  0  0  0  0  0  0  0  0  0  0  0  0  68  154  85  102  204  0  0  0  0  0  0  0  0  0  0  0  0  0  0  0  0  0  0  0  0  0  0  0  0  0  0  0  0  0  0  0  0  0  0  0  0  0  0  0  0  0  0  0  0  0  0  0  0  0  0  0  0  0  0  0  0  0  0  0  0  0  0  0  0  0  0  0  
0  145  162  205  52  111  111  111  51  43  17  0  17  0  17  51  68  111  179  59  145  145  0  0  0  0  0  0  0  0  0  0  0  0  0  0  0  0  0  0  0  0  0  0  0  0  0  0  0  0  0  0  0  0  0  0  0  0  0  0  0  0  0  0  0  0  0  0  0  0  0  0  0  0  0  0  0  0  0  0  0  0  0  0  0  0  0  0  0  0  0  
0  0  0  153  212  94  94  119  60  94  154  154  154  154  171  69  59  94  153  153  0  0  0  0  0  0  0  0  0  0  0  0  0  0  0  0  0  0  0  0  0  0  0  0  0  0  0  0  0  0  0  0  0  0  0  0  0  0  0  0  0  0  0  0  0  0  0  0  0  0  0  0  0  0  0  0  0  0  0  0  0  0  0  0  0  0  0  0  0  0  0  
0  0  0  0  0  0  153  204  110  137  68  85  68  85  102  153  153  0  0  0  0  0  0  0  0  0  0  0  0  0  0  0  0  0  0  0  0  0  0  0  0  0  0  0  0  0  0  0  0  0  0  0  0  0  0  0  0  0  0  0  0  0  0  0  0  0  0  0  0  0  0  0  0  0  0  0  0  0  0  0  0  0  0  0  0  0  0  0  0  0  0  